<svg id="Layer_1" data-name="Layer 1" xmlns="http://www.w3.org/2000/svg" xmlns:xlink="http://www.w3.org/1999/xlink" viewBox="0 0 32 32"><defs><style>.cls-1{fill:none;}.cls-2{fill:#010101;}.cls-3{clip-path:url(#clip-path);}</style><clipPath id="clip-path"><polygon class="cls-1" points="16.31 3.82 16.31 7.15 10.85 7.15 10.85 28.18 7.13 28.18 7.13 3.82 16.31 3.82"/></clipPath></defs><path class="cls-2" d="M23.82,17.7a5.74,5.74,0,0,0-2.62-2,4.83,4.83,0,0,0,1.62-1.06A5.59,5.59,0,0,0,24,12.8a5.71,5.71,0,0,0,.46-2.31A6.74,6.74,0,0,0,23.59,7,5.83,5.83,0,0,0,21,4.63a8.87,8.87,0,0,0-3.89-.81h-.31V7.15a4.92,4.92,0,0,1,2.1.41,3.08,3.08,0,0,1,1.39,1.2,3.52,3.52,0,0,1,.49,1.87,3.21,3.21,0,0,1-1.07,2.57,4.32,4.32,0,0,1-2.91.91H11.36v3.33h5.81a4.67,4.67,0,0,1,2.15.46,3.26,3.26,0,0,1,1.38,1.29,3.87,3.87,0,0,1,.47,1.94,4,4,0,0,1-.47,1.94,3.33,3.33,0,0,1-1.37,1.31,4.65,4.65,0,0,1-2.16.47H11.36v3.33H17.5a8.88,8.88,0,0,0,3.84-.8A5.93,5.93,0,0,0,24,25a7.24,7.24,0,0,0,.92-3.75A6,6,0,0,0,23.82,17.7Z"/><g class="cls-3"><rect class="cls-2" x="0.67" y="25.49" width="17.88" height="1.14" transform="translate(-2.02 51.28) rotate(-135)"/><rect class="cls-2" x="0.16" y="20.88" width="17.88" height="1.14" transform="translate(0.37 43.05) rotate(-135)"/><rect class="cls-2" x="0.16" y="16.27" width="17.88" height="1.14" transform="translate(3.63 35.18) rotate(-135)"/><rect class="cls-2" x="0.16" y="11.66" width="17.88" height="1.14" transform="translate(6.89 27.31) rotate(-135)"/><rect class="cls-2" x="0.16" y="7.05" width="17.88" height="1.14" transform="translate(10.15 19.44) rotate(-135)"/><rect class="cls-2" x="0.16" y="2.44" width="17.88" height="1.14" transform="translate(13.41 11.57) rotate(-135)"/><rect class="cls-2" x="4.04" y="2.44" width="17.88" height="1.14" transform="translate(20.03 14.32) rotate(-135)"/></g></svg>