<svg id="Layer_1" data-name="Layer 1" xmlns="http://www.w3.org/2000/svg" xmlns:xlink="http://www.w3.org/1999/xlink" viewBox="0 0 32 32"><defs><style>.cls-1{fill:none;}.cls-2{fill:#fff;}.cls-3{clip-path:url(#clip-path);}</style><clipPath id="clip-path"><polygon class="cls-1" points="16.2 8.18 16.2 10.32 12.7 10.32 12.7 23.82 10.3 23.82 10.3 8.18 16.2 8.18"/></clipPath></defs><path class="cls-2" d="M16,2.2A13.8,13.8,0,1,0,29.8,16,13.8,13.8,0,0,0,16,2.2Zm0,26.35A12.55,12.55,0,1,1,28.55,16,12.55,12.55,0,0,1,16,28.55Z"/><path class="cls-2" d="M16,29.89A13.89,13.89,0,0,1,6.18,6.18,13.89,13.89,0,1,1,25.82,25.82,13.81,13.81,0,0,1,16,29.89Zm0-27.6A13.71,13.71,0,1,0,29.71,16,13.73,13.73,0,0,0,16,2.29Zm0,26.34A12.63,12.63,0,0,1,7.07,7.07,12.63,12.63,0,1,1,24.93,24.93,12.52,12.52,0,0,1,16,28.63ZM16,3.54A12.46,12.46,0,1,0,28.46,16,12.47,12.47,0,0,0,16,3.54Z"/><path class="cls-2" d="M21,17.09a3.71,3.71,0,0,0-1.68-1.32,3.06,3.06,0,0,0,1-.68A3.42,3.42,0,0,0,21.15,14a3.67,3.67,0,0,0,.3-1.49,4.33,4.33,0,0,0-.58-2.27A3.8,3.8,0,0,0,19.22,8.7a5.77,5.77,0,0,0-2.49-.52h-.2v2.14a3.27,3.27,0,0,1,1.34.26,1.92,1.92,0,0,1,.89.77,2.24,2.24,0,0,1,.32,1.2,2,2,0,0,1-.69,1.65,2.77,2.77,0,0,1-1.86.59H13v2.13h3.73a3,3,0,0,1,1.38.3,2.11,2.11,0,0,1,.89.83,2.45,2.45,0,0,1,.3,1.24,2.47,2.47,0,0,1-.3,1.24,2.19,2.19,0,0,1-.88.85,3,3,0,0,1-1.39.3H13v2.14H17a5.71,5.71,0,0,0,2.47-.51,3.8,3.8,0,0,0,1.67-1.5,4.61,4.61,0,0,0,.6-2.41A3.85,3.85,0,0,0,21,17.09Z"/><g class="cls-3"><rect class="cls-2" x="6.16" y="22.09" width="11.48" height="0.73" transform="translate(4.43 46.75) rotate(-135)"/><rect class="cls-2" x="5.83" y="19.13" width="11.48" height="0.73" transform="translate(5.97 41.47) rotate(-135)"/><rect class="cls-2" x="5.83" y="16.17" width="11.48" height="0.73" transform="translate(8.06 36.42) rotate(-135)"/><rect class="cls-2" x="5.83" y="13.21" width="11.48" height="0.73" transform="translate(10.15 31.36) rotate(-135)"/><rect class="cls-2" x="5.83" y="10.25" width="11.48" height="0.73" transform="translate(12.24 26.31) rotate(-135)"/><rect class="cls-2" x="5.83" y="7.29" width="11.48" height="0.73" transform="translate(14.33 21.26) rotate(-135)"/><rect class="cls-2" x="8.32" y="7.29" width="11.48" height="0.73" transform="translate(18.59 23.02) rotate(-135)"/></g><path class="cls-2" d="M16,28A12,12,0,0,1,7.52,7.52a12,12,0,1,1,17,17A11.9,11.9,0,0,1,16,28ZM16,4.31A11.69,11.69,0,1,0,27.69,16,11.7,11.7,0,0,0,16,4.31Z"/></svg>