<svg id="Layer_1" data-name="Layer 1" xmlns="http://www.w3.org/2000/svg" viewBox="0 0 32 32"><defs><style>.cls-1{fill:#010101;}.cls-2{fill:none;}</style></defs><rect class="cls-1" x="5.38" y="14.87" width="22.21" height="0.16" transform="translate(-4.34 22.79) rotate(-62.84)"/><polygon class="cls-1" points="11.43 24.48 9.41 25.73 8.28 27.93 10.13 27.34 10.72 29.18 11.85 26.98 11.68 24.61 11.43 24.48"/><polygon class="cls-1" points="22.41 6.85 21.31 5.54 19.61 5.41 22.71 2.82 22.41 6.85"/><path class="cls-2" d="M13.58,22.36a12.34,12.34,0,0,0,1.93.1c2.39,0,4.59-.87,4.59-3.47,0-2.43-2.09-3.44-4.61-3.44H15.4l-1.82,3.7Z"/><path class="cls-2" d="M13.58,8.06V13.8h2.1l.59,0,2.45-5a4.59,4.59,0,0,0-3.1-.88A9.89,9.89,0,0,0,13.58,8.06Z"/><path class="cls-2" d="M19.54,10.81a2.56,2.56,0,0,0-.82-2l-2.45,5C18.34,13.59,19.54,12.39,19.54,10.81Z"/><polygon class="cls-2" points="13.58 19.25 15.4 15.55 13.58 15.55 13.58 19.25"/><path class="cls-1" d="M13.68,13.92V8.09a10.36,10.36,0,0,1,2.11-.16,5.58,5.58,0,0,1,3.43,1l.94-1.89a10,10,0,0,0-4.52-.93,24.31,24.31,0,0,0-4.38.38V24.22l2.42-4.76V15.69"/><path class="cls-1" d="M13,22.81,12,24.64v.12a30.59,30.59,0,0,0,3.72.21c3,0,5.11-.54,6.4-1.69a4.82,4.82,0,0,0,1.58-3.62,4.71,4.71,0,0,0-3.82-4.54v0a4.34,4.34,0,0,0,3.13-4A3.77,3.77,0,0,0,21.49,7.9a5.24,5.24,0,0,0-.78-.51l-.95,1.89a2.58,2.58,0,0,1,.85,2.06c0,1.59-1.25,2.81-3.4,3l-.9,1.8h.09c2.61,0,4.78,1,4.78,3.49,0,2.63-2.27,3.52-4.75,3.52a12.86,12.86,0,0,1-2-.11"/></svg>