<?xml version="1.0" encoding="UTF-8"?>
<svg id="Layer_4" data-name="Layer 4" xmlns="http://www.w3.org/2000/svg" viewBox="0 0 3000 3000">
  <defs>
    <style>
      .cls-1 {
        fill: #2b3a42;
      }

      .cls-2 {
        fill: none;
      }
    </style>
  </defs>
  <rect class="cls-2" x="0" width="3000" height="3050"/>
  <g>
    <g>
      <rect class="cls-1" x="504.26" y="1382.67" width="2082.1" height="28" transform="translate(-402.76 2134.04) rotate(-62.84)"/>
      <polygon class="cls-1" points="1071.74 2290.71 882.37 2407.79 776.52 2614.09 949.19 2558.54 1004.78 2731.2 1110.63 2524.9 1095.31 2302.79 1071.74 2290.71"/>
      <path class="cls-1" d="M2088.75,622.85l-88.6-106.26c-1.3-1.56-3.19-2.53-5.22-2.68l-137.99-10c-6.72-.49-9.44-8.9-4.27-13.22l262.65-220.13c5.08-4.26,12.79-.31,12.29,6.31l-25.63,341.73c-.5,6.72-8.92,9.41-13.24,4.24Z"/>
    </g>
    <path class="cls-2" d="M1273.02,2091.26c42,7.45,104.47,9.93,181.44,9.93,223.46,0,429.64-81.92,429.64-325.25,0-228.43-196.06-322.76-431.94-322.76h-8.6l-170.54,346.46v291.61Z"/>
    <path class="cls-2" d="M1273.02,750.47v538.7h196.53c19.26,0,37.84-.82,55.73-2.47l230.13-468.57c-64.67-57.64-166.67-82.58-291.02-82.58-99.32,0-155.37,7.46-191.37,14.91Z"/>
    <path class="cls-2" d="M1832.05,1008.7c0-84.52-27.68-146.89-76.64-190.53l-230.13,468.59c194.34-17.9,306.77-130.27,306.77-278.06Z"/>
    <polygon class="cls-2" points="1273.02 1799.64 1443.56 1453.18 1273.02 1453.18 1273.02 1799.64"/>
    <path class="cls-1" d="M1272.02,1300.18V753.35c35-7.57,95.05-15.13,198.09-15.13,129.01,0,254.39,36.39,321.48,94.95l88.69-176.96c-98.99-52.26-246.82-86.98-423.97-86.98-157.13,0-311.29,15.13-410.29,35.31v1661.47l226-446.83v-353"/>
    <path class="cls-1" d="M1223.93,2134.01l-86.91,171.36v10.82c76,10.07,193.78,20.13,348.37,20.13,283.41,0,479.49-50.33,600.58-158.55,87.6-83.05,147.52-193.78,147.52-339.75,0-251.66-194.47-385.05-357.47-425.31v-5.03c181-65.43,293.19-208.88,293.19-372.46,0-133.38-54.36-234.05-144.54-299.48-22.67-17.93-47.09-33.73-73.33-47.55l-88.84,176.56c50.81,44.23,79.5,107.45,79.5,193.12,0,149.79-116.69,263.6-318.34,281.75l-84.81,168.56h8.92c244.76,0,448.3,95.72,448.3,327.25,0,246.63-213.49,329.72-445.37,329.72-79.87,0-145.88-2.46-187.86-10.01"/>
  </g>
</svg>